<svg fill="#000000" xmlns="http://www.w3.org/2000/svg"  viewBox="0 0 24 24" width="480px" height="480px"><path d="M 0.8125 0 C 0.414063 0 0 0.414063 0 0.8125 L 0 23.1875 C 0 23.585938 0.414063 24 0.8125 24 L 23.1875 24 C 23.585938 24 24 23.585938 24 23.1875 L 24 0.8125 C 24 0.414063 23.585938 0 23.1875 0 Z M 10 4 C 13.300781 4 16 6.699219 16 10 C 16 11.300781 15.605469 12.5 14.90625 13.5 L 20.09375 18.6875 C 20.195313 18.789063 20.1875 19.1875 19.6875 19.6875 C 19.1875 20.1875 18.789063 20.195313 18.6875 20.09375 L 13.5 14.90625 C 12.5 15.605469 11.300781 16 10 16 C 6.699219 16 4 13.300781 4 10 C 4 6.699219 6.699219 4 10 4 Z M 10 6 C 7.789063 6 6 7.789063 6 10 C 6 12.210938 7.789063 14 10 14 C 12.210938 14 14 12.210938 14 10 C 14 7.789063 12.210938 6 10 6 Z"/></svg>