<?xml version="1.0" encoding="utf-8"?>
<!-- Generator: Adobe Illustrator 20.0.0, SVG Export Plug-In . SVG Version: 6.00 Build 0)  -->
<svg version="1.1" id="user-experience" xmlns="http://www.w3.org/2000/svg" xmlns:xlink="http://www.w3.org/1999/xlink" x="0px"
	 y="0px" viewBox="0 0 1009.9989 888.7998" enable-background="new 0 0 1009.9989 888.7998" xml:space="preserve">
<g id="user-experience-user-experience">
	<g>
		<circle fill="#BDBF6D" cx="504.9999" cy="444.3996" r="444.3998"/>
	</g>
	<g>
		<g>
			<path fill="#ED7161" d="M456.4131,481.3271c0,127.6709-83.542,207.0704-216.7354,207.0704
				c-133.9038,0-219.4775-79.3995-219.4775-207.0704V200.4219h109.0483v280.9052c0,69.7149,45.5684,111.8106,110.4292,111.8106
				c64.9004,0,107.6675-42.0957,107.6675-111.8106V200.4219h109.0679V481.3271z"/>
			<path fill="#656872" d="M239.6777,708.5967C94.0757,708.5967,0,619.374,0,481.3271V200.4219
				c0-11.1656,9.0444-20.2002,20.2002-20.2002h109.0483c11.1553,0,20.1997,9.0346,20.1997,20.2002v280.9052
				c0,56.4981,34.5708,91.6114,90.2295,91.6114c54.7705,0,87.4673-34.2461,87.4673-91.6114V200.4219
				c0-11.1656,9.0449-20.2002,20.2002-20.2002h109.0679c11.1557,0,20.2002,9.0346,20.2002,20.2002v280.9052
				C476.6133,619.374,383.6123,708.5967,239.6777,708.5967L239.6777,708.5967z M40.3999,220.6216v260.7055
				c0,115.2627,76.3613,186.8702,199.2778,186.8702c123.064,0,196.5357-69.8516,196.5357-186.8702V220.6216h-68.6685v260.7055
				c0,80.1895-50.1938,132.0108-127.8672,132.0108c-78.1372,0-130.6294-53.0645-130.6294-132.0108V220.6216H40.3999
				L40.3999,220.6216z"/>
		</g>
		<g>
			<path fill="#FFCA70" d="M989.7988,683.5439H859.3281l-113.8222-160.83l-111.8495,160.83h-127.67l173.2383-247.1133
				L517.7231,200.4219h126.9996l100.7831,147.6923l101.4337-147.6923h129.0712l-160.831,231.2148L989.7988,683.5439z"/>
			<path fill="#656872" d="M989.7988,703.7451H859.3281c-6.5586,0-12.704-3.1758-16.4911-8.542l-97.1826-137.3164l-95.418,137.1982
				c-3.7675,5.4239-9.9619,8.6602-16.58,8.6602h-127.67c-7.5356,0-14.4399-4.2021-17.9218-10.8691
				c-3.4717-6.707-2.939-14.7559,1.3808-20.9306l165.21-235.6533L501.0547,211.8237c-4.2315-6.1743-4.6953-14.2031-1.1939-20.8315
				c3.4917-6.628,10.3667-10.7705,17.8623-10.7705h126.9996c6.6777,0,12.9218,3.2944,16.6894,8.8178l84.1426,123.3106
				l84.7363-123.3696c3.7676-5.4844,9.9911-8.7588,16.6485-8.7588h129.0712c7.5254,0,14.42,4.1821,17.9014,10.8496
				c3.4824,6.6675,2.9785,14.7158-1.3214,20.8706L839.7695,431.6562l166.6299,240.3877c4.2803,6.1543,4.7842,14.2032,1.2921,20.8711
				C1004.21,699.5829,997.3154,703.7451,989.7988,703.7451L989.7988,703.7451z M869.7832,663.3447h81.4316l-152.6347-220.207
				c-4.8028-6.9248-4.8028-16.1172,0.0195-23.041l138.7568-199.4751h-79.7841l-95.417,138.9145
				c-3.7686,5.5034-9.9912,8.7783-16.6494,8.7783c-7.5948,0.1382-12.9208-3.2944-16.6885-8.8178l-94.7666-138.875h-78.0283
				l139.8711,204.4067c4.7548,6.9434,4.705,16.0967-0.1281,23.001L544.8179,663.3447h78.2846l105.8233-152.1504
				c3.7578-5.4062,9.9121-8.6406,16.501-8.6797c5.9384,0.5918,12.7628,3.1563,16.5703,8.5215L869.7832,663.3447L869.7832,663.3447z"
				/>
		</g>
	</g>
</g>
</svg>
